# xmcd
#
# Track frame offsets: 
#        150
#        9645
#        24649
#        36237
#        62646
#        74653
#        90828
#        99857
#        114728
#        126579
#        138261
#        149885
#        162038
#        169282
#        182432
#        191535
#        209201
#        226865
#        242603
#        255450
#        274289
#
# Disc length: 3912 seconds
#
# Revision: 1
# Processed by: cddbd v1.5.2PL0 Copyright (c) Steve Scherf et al.
# Submitted via: ExactAudioCopyFreeDBPlugin 1.0
#
DISCID=340f4615
DTITLE=Various Artist - DJ Snowboy Presents
DYEAR=2012
DGENRE=Rhythm and Blues
TTITLE0=Darrel Higham and The Enforcers - Baby, Take Me Back
TTITLE1=Laura B and The Moonlighters - That's a Pretty Good Love
TTITLE2=Sharon Jones and The Dap Kings - She Ain't a Child No More
TTITLE3=Speedometer - Ain't Goin' to Thursford
TTITLE4=Eli "Paperboy" Reed - The Satisfier (ft The Trueloves)
TTITLE5=The Perceptions - Running the Risk (ft Fred Wesley)
TTITLE6=James Hunter - Kick it Around
TTITLE7=Snowboy and The Latin Section - I've Got to Learn to Mambo (ft J
TTITLE7=ames Hunter)
TTITLE8=Ray Gelato and Kal Hoffman - That Old Black Music
TTITLE9=Ondrej Havelka and His Melody Makers - Sing, Sing, Sing
TTITLE10=Si Cranstoun - Dynamo
TTITLE11=Imelda May - Stop Whistlin' Wolf
TTITLE12=Crazy Cavan and The Rhythm Rockers - Teddy Boy Rock and Roll
TTITLE13=Rich Clifford and The Saddows - Find Me a Golden Street
TTITLE14=The Rapiers - Green Jeans
TTITLE15=Kitty, Daisy and Lewis - Don't Make a Fool Out of Me
TTITLE16=The James Taylor Quartet - Blow Up
TTITLE17=Steve Hooker - Sugar Devil
TTITLE18=Big Boy Bloater and The Limits - Big Fat Trap
TTITLE19=Magnus Carlson - From Now On
TTITLE20=Kings Go Forth - One Day
EXTD=
EXTT0=
EXTT1=
EXTT2=
EXTT3=
EXTT4=
EXTT5=
EXTT6=
EXTT7=
EXTT8=
EXTT9=
EXTT10=
EXTT11=
EXTT12=
EXTT13=
EXTT14=
EXTT15=
EXTT16=
EXTT17=
EXTT18=
EXTT19=
EXTT20=
PLAYORDER=
